<svg width="25" height="46" viewBox="0 0 25 46" fill="none" xmlns="http://www.w3.org/2000/svg">
<path d="M10.6699 38.2188V34.3164C8.4082 34.1172 6.58008 33.2793 5.18555 31.8027C3.60352 30.127 2.8125 28.1641 2.8125 25.9141L6.15234 24.332H6.32812V27.0039C6.32812 28.4336 6.75 29.6348 7.59375 30.6074C8.41406 31.5566 9.43945 32.1309 10.6699 32.3301V20.7461C8.95898 20.5469 7.45312 19.8613 6.15234 18.6895C4.98047 17.6348 4.39453 16.1055 4.39453 14.1016C4.39453 11.7344 5.12109 9.96484 6.57422 8.79297C7.72266 7.86719 9.08789 7.32227 10.6699 7.1582V4.11719L12.5332 3.23828H12.709V7.1582C14.291 7.32227 15.6562 7.86719 16.8047 8.79297C18.2578 9.96484 18.9844 11.5879 18.9844 13.6621L15.6445 15.2441H15.4688V12.9941C15.4688 11.6699 15.0879 10.6738 14.3262 10.0059C13.8457 9.58398 13.3066 9.30273 12.709 9.16211V17.6699C15.0527 17.8105 16.8809 18.4668 18.1934 19.6387C19.7637 21.0449 20.5488 23.0664 20.5488 25.7031C20.5488 28.1055 19.7637 30.1387 18.1934 31.8027C16.7988 33.2793 14.9707 34.1172 12.709 34.3164V37.3398L10.8457 38.2188H10.6699ZM10.6699 17.5469V9.14453C9.99023 9.29688 9.41602 9.61914 8.94727 10.1113C8.25586 10.8379 7.91016 12.0801 7.91016 13.8379C7.91016 14.998 8.17383 15.8711 8.70117 16.457C9.20508 17.0195 9.86133 17.3828 10.6699 17.5469ZM12.709 20.8516V32.3301C13.9277 32.1309 14.9531 31.5566 15.7852 30.6074C16.6172 29.6582 17.0332 28.0352 17.0332 25.7383C17.0332 24.3555 16.6934 23.2598 16.0137 22.4512C15.252 21.5488 14.1504 21.0156 12.709 20.8516Z" fill="#CCC6C6"/>
<path d="M10.6699 38.2188H9.66992V39.2188H10.6699V38.2188ZM10.6699 34.3164H11.6699V33.4006L10.7577 33.3203L10.6699 34.3164ZM5.18555 31.8027L4.45839 32.4892L4.45853 32.4894L5.18555 31.8027ZM2.8125 25.9141L2.38441 25.0103L1.8125 25.2812V25.9141H2.8125ZM6.15234 24.332V23.332H5.92748L5.72426 23.4283L6.15234 24.332ZM6.32812 24.332H7.32812V23.332H6.32812V24.332ZM7.59375 30.6074L8.35036 29.9536L8.34914 29.9521L7.59375 30.6074ZM10.6699 32.3301L10.5101 33.3172L11.6699 33.505V32.3301H10.6699ZM10.6699 20.7461H11.6699V19.8558L10.7856 19.7528L10.6699 20.7461ZM6.15234 18.6895L6.82168 17.9465L6.82131 17.9462L6.15234 18.6895ZM6.57422 8.79297L5.94662 8.01443L5.94647 8.01456L6.57422 8.79297ZM10.6699 7.1582L10.7731 8.15287L11.6699 8.05986V7.1582H10.6699ZM10.6699 4.11719L10.2433 3.21276L9.66992 3.48322V4.11719H10.6699ZM12.5332 3.23828V2.23828H12.3092L12.1066 2.33385L12.5332 3.23828ZM12.709 3.23828H13.709V2.23828H12.709V3.23828ZM12.709 7.1582H11.709V8.05986L12.6058 8.15287L12.709 7.1582ZM16.8047 8.79297L17.4324 8.01456L17.4323 8.01443L16.8047 8.79297ZM18.9844 13.6621L19.4125 14.5658L19.9844 14.2949V13.6621H18.9844ZM15.6445 15.2441V16.2441H15.8694L16.0726 16.1479L15.6445 15.2441ZM15.4688 15.2441H14.4688V16.2441H15.4688V15.2441ZM14.3262 10.0059L13.6664 10.7573L13.6668 10.7577L14.3262 10.0059ZM12.709 9.16211L12.938 8.18869L11.709 7.89951V9.16211H12.709ZM12.709 17.6699H11.709V18.6117L12.6491 18.6681L12.709 17.6699ZM18.1934 19.6387L18.8605 18.8937L18.8594 18.8927L18.1934 19.6387ZM18.1934 31.8027L18.9204 32.4894L18.9207 32.4891L18.1934 31.8027ZM12.709 34.3164L12.6212 33.3203L11.709 33.4006V34.3164H12.709ZM12.709 37.3398L13.1356 38.2443L13.709 37.9738V37.3398H12.709ZM10.8457 38.2188V39.2188H11.0697L11.2723 39.1232L10.8457 38.2188ZM10.6699 17.5469L10.4711 18.5269L11.6699 18.7701V17.5469H10.6699ZM10.6699 9.14453H11.6699V7.89558L10.4512 8.16874L10.6699 9.14453ZM8.94727 10.1113L8.22313 9.42167L8.22285 9.42196L8.94727 10.1113ZM8.70117 16.457L9.44601 15.7898L9.44447 15.7881L8.70117 16.457ZM12.709 20.8516L12.8221 19.858L11.709 19.7313V20.8516H12.709ZM12.709 32.3301H11.709V33.5068L12.8703 33.317L12.709 32.3301ZM16.0137 22.4512L16.7792 21.8077L16.7778 21.8061L16.0137 22.4512ZM11.6699 38.2188V34.3164H9.66992V38.2188H11.6699ZM10.7577 33.3203C8.70885 33.1398 7.11892 32.3934 5.91256 31.1161L4.45853 32.4894C6.04123 34.1652 8.10755 35.0946 10.5822 35.3125L10.7577 33.3203ZM5.9127 31.1163C4.50118 29.6211 3.8125 27.902 3.8125 25.9141H1.8125C1.8125 28.4261 2.70585 30.6328 4.45839 32.4892L5.9127 31.1163ZM3.24059 26.8178L6.58043 25.2358L5.72426 23.4283L2.38441 25.0103L3.24059 26.8178ZM6.15234 25.332H6.32812V23.332H6.15234V25.332ZM5.32812 24.332V27.0039H7.32812V24.332H5.32812ZM5.32812 27.0039C5.32812 28.6458 5.81913 30.0878 6.83836 31.2627L8.34914 29.9521C7.68087 29.1818 7.32812 28.2213 7.32812 27.0039H5.32812ZM6.83714 31.2613C7.80997 32.387 9.04609 33.0802 10.5101 33.3172L10.8297 31.3429C9.83282 31.1815 9.01816 30.7263 8.35036 29.9536L6.83714 31.2613ZM11.6699 32.3301V20.7461H9.66992V32.3301H11.6699ZM10.7856 19.7528C9.2843 19.578 7.97105 18.982 6.82168 17.9465L5.48301 19.4324C6.9352 20.7407 8.63367 21.5158 10.5543 21.7394L10.7856 19.7528ZM6.82131 17.9462C5.9143 17.1298 5.39453 15.9041 5.39453 14.1016H3.39453C3.39453 16.3069 4.04664 18.1397 5.48338 19.4327L6.82131 17.9462ZM5.39453 14.1016C5.39453 11.9485 6.04533 10.5042 7.20197 9.57138L5.94647 8.01456C4.19686 9.42553 3.39453 11.5203 3.39453 14.1016H5.39453ZM7.20182 9.57151C8.18814 8.77641 9.36737 8.29865 10.7731 8.15287L10.5668 6.16354C8.80841 6.34589 7.25717 6.95797 5.94662 8.01443L7.20182 9.57151ZM11.6699 7.1582V4.11719H9.66992V7.1582H11.6699ZM11.0965 5.02162L12.9598 4.14271L12.1066 2.33385L10.2433 3.21276L11.0965 5.02162ZM12.5332 4.23828H12.709V2.23828H12.5332V4.23828ZM11.709 3.23828V7.1582H13.709V3.23828H11.709ZM12.6058 8.15287C14.0115 8.29865 15.1908 8.77641 16.1771 9.57151L17.4323 8.01443C16.1217 6.95797 14.5705 6.34589 12.8121 6.16354L12.6058 8.15287ZM16.1769 9.57138C17.3665 10.5307 17.9844 11.8521 17.9844 13.6621H19.9844C19.9844 11.3237 19.1492 9.399 17.4324 8.01456L16.1769 9.57138ZM18.5563 12.7584L15.2164 14.3404L16.0726 16.1479L19.4125 14.5658L18.5563 12.7584ZM15.6445 14.2441H15.4688V16.2441H15.6445V14.2441ZM16.4688 15.2441V12.9941H14.4688V15.2441H16.4688ZM16.4688 12.9941C16.4688 11.4759 16.0256 10.1661 14.9855 9.254L13.6668 10.7577C14.1502 11.1816 14.4688 11.8639 14.4688 12.9941H16.4688ZM14.986 9.25442C14.3876 8.72899 13.702 8.36845 12.938 8.18869L12.4799 10.1355C12.9113 10.237 13.3038 10.439 13.6664 10.7573L14.986 9.25442ZM11.709 9.16211V17.6699H13.709V9.16211H11.709ZM12.6491 18.6681C14.8432 18.7998 16.4313 19.406 17.5273 20.3846L18.8594 18.8927C17.3304 17.5276 15.2622 16.8213 12.7689 16.6717L12.6491 18.6681ZM17.5262 20.3836C18.8336 21.5544 19.5488 23.2741 19.5488 25.7031H21.5488C21.5488 22.8587 20.6937 20.5354 18.8605 18.8937L17.5262 20.3836ZM19.5488 25.7031C19.5488 27.8643 18.8518 29.6479 17.4661 31.1164L18.9207 32.4891C20.6755 30.6294 21.5488 28.3466 21.5488 25.7031H19.5488ZM17.4663 31.1161C16.26 32.3934 14.6701 33.1398 12.6212 33.3203L12.7967 35.3125C15.2714 35.0946 17.3377 34.1652 18.9204 32.4894L17.4663 31.1161ZM11.709 34.3164V37.3398H13.709V34.3164H11.709ZM12.2824 36.4354L10.4191 37.3143L11.2723 39.1232L13.1356 38.2443L12.2824 36.4354ZM10.8457 37.2188H10.6699V39.2188H10.8457V37.2188ZM11.6699 17.5469V9.14453H9.66992V17.5469H11.6699ZM10.4512 8.16874C9.58354 8.36322 8.83189 8.78248 8.22313 9.42167L9.6714 10.801C10.0001 10.4558 10.3969 10.2305 10.8886 10.1203L10.4512 8.16874ZM8.22285 9.42196C7.26163 10.4321 6.91016 12.0007 6.91016 13.8379H8.91016C8.91016 12.1594 9.25009 11.2437 9.67168 10.8007L8.22285 9.42196ZM6.91016 13.8379C6.91016 15.1308 7.20214 16.2863 7.95788 17.126L9.44447 15.7881C9.14551 15.4559 8.91016 14.8653 8.91016 13.8379H6.91016ZM7.95634 17.1243C8.61727 17.8621 9.47219 18.3242 10.4711 18.5269L10.8688 16.5668C10.2505 16.4414 9.79289 16.177 9.44601 15.7898L7.95634 17.1243ZM11.709 20.8516V32.3301H13.709V20.8516H11.709ZM12.8703 33.317C14.3235 33.0794 15.5559 32.3861 16.5372 31.2666L15.0332 29.9483C14.3504 30.7272 13.532 31.1823 12.5477 31.3432L12.8703 33.317ZM16.5372 31.2666C17.6163 30.0354 18.0332 28.1004 18.0332 25.7383H16.0332C16.0332 27.97 15.618 29.281 15.0332 29.9483L16.5372 31.2666ZM18.0332 25.7383C18.0332 24.1938 17.6518 22.8459 16.7792 21.8077L15.2482 23.0946C15.7349 23.6736 16.0332 24.5171 16.0332 25.7383H18.0332ZM16.7778 21.8061C15.8157 20.6664 14.456 20.044 12.8221 19.858L12.5959 21.8451C13.8448 21.9873 14.6882 22.4312 15.2495 23.0962L16.7778 21.8061Z" fill="#CCC6C6"/>
</svg>
