<svg width="132" height="39" viewBox="0 0 132 39" fill="none" xmlns="http://www.w3.org/2000/svg">
<path d="M8.66992 35.2188V31.3164C6.4082 31.1172 4.58008 30.2793 3.18555 28.8027C1.60352 27.127 0.8125 25.1641 0.8125 22.9141L4.15234 21.332H4.32812V24.0039C4.32812 25.4336 4.75 26.6348 5.59375 27.6074C6.41406 28.5566 7.43945 29.1309 8.66992 29.3301V17.7461C6.95898 17.5469 5.45312 16.8613 4.15234 15.6895C2.98047 14.6348 2.39453 13.1055 2.39453 11.1016C2.39453 8.73437 3.12109 6.96484 4.57422 5.79297C5.72266 4.86719 7.08789 4.32227 8.66992 4.1582V1.11719L10.5332 0.238281H10.709V4.1582C12.291 4.32227 13.6562 4.86719 14.8047 5.79297C16.2578 6.96484 16.9844 8.58789 16.9844 10.6621L13.6445 12.2441H13.4688V9.99414C13.4688 8.66992 13.0879 7.67383 12.3262 7.00586C11.8457 6.58398 11.3066 6.30273 10.709 6.16211V14.6699C13.0527 14.8105 14.8809 15.4668 16.1934 16.6387C17.7637 18.0449 18.5488 20.0664 18.5488 22.7031C18.5488 25.1055 17.7637 27.1387 16.1934 28.8027C14.7988 30.2793 12.9707 31.1172 10.709 31.3164V34.3398L8.8457 35.2188H8.66992ZM8.66992 14.5469V6.14453C7.99023 6.29688 7.41602 6.61914 6.94727 7.11133C6.25586 7.83789 5.91016 9.08008 5.91016 10.8379C5.91016 11.998 6.17383 12.8711 6.70117 13.457C7.20508 14.0195 7.86133 14.3828 8.66992 14.5469ZM10.709 17.8516V29.3301C11.9277 29.1309 12.9531 28.5566 13.7852 27.6074C14.6172 26.6582 15.0332 25.0352 15.0332 22.7383C15.0332 21.3555 14.6934 20.2598 14.0137 19.4512C13.252 18.5488 12.1504 18.0156 10.709 17.8516ZM26.3359 31.7031V13.5977H21.8184V13.4219L22.6445 11.6641H26.3359V5.33594L29.6758 3.75391H29.8516V11.6641H34.3691V11.8398L33.543 13.5977H29.8516V30.1211L26.5117 31.7031H26.3359ZM52.2109 21.1738C50.1836 21.1855 48.7949 21.5137 48.0449 22.1582C47.2949 22.791 46.9199 23.8809 46.9199 25.4277C46.9199 26.998 47.3008 28.123 48.0625 28.8027C48.7891 29.4473 50.1719 29.7695 52.2109 29.7695V21.1738ZM52.3867 31.7031H50.6992C48.3906 31.5508 46.6738 31.0234 45.5488 30.1211C44.1191 28.9727 43.4043 27.5078 43.4043 25.7266C43.4043 23.6758 44.1309 22.0762 45.584 20.9277C46.8145 19.9551 48.5195 19.3926 50.6992 19.2402H52.2109C52.2109 17.377 51.7891 15.9824 50.9453 15.0566C49.832 13.8496 48.4668 13.2461 46.8496 13.2461C45.1621 13.2461 43.7969 13.8496 42.7539 15.0566C41.9102 16.0176 41.4883 17.2891 41.4883 18.8711V31C41.4883 32.582 41.9102 33.8535 42.7539 34.8145C43.7969 36.0215 45.1621 36.625 46.8496 36.625V38.5586C44.1777 38.5586 42.0098 37.709 40.3457 36.0098C38.7637 34.3926 37.9727 32.3125 37.9727 29.7695V20.1016C37.9727 17.5586 38.7637 15.4785 40.3457 13.8613C42.0098 12.1621 44.1777 11.3125 46.8496 11.3125C49.5215 11.3125 51.6895 12.1621 53.3535 13.8613C54.9355 15.4668 55.7266 17.5469 55.7266 20.1016V30.1211L52.3867 31.7031ZM62.4062 31.7031V12.8945C62.4062 10.3633 63.1973 8.2832 64.7793 6.6543C66.4434 4.95508 68.6113 4.10547 71.2832 4.10547C73.9199 4.10547 76.0879 4.95508 77.7871 6.6543C79.3691 8.22461 80.1602 10.3047 80.1602 12.8945V30.1211L76.8203 31.7031H76.6445V11.6641C76.6445 10.0938 76.2227 8.82227 75.3789 7.84961C74.3359 6.64258 72.9707 6.03906 71.2832 6.03906C69.5957 6.03906 68.2305 6.64258 67.1875 7.84961C66.3438 8.82227 65.9219 10.0938 65.9219 11.6641V30.1211L62.582 31.7031H62.4062ZM87.1914 31.7031V5.33594L90.5312 3.75391H90.707V30.1211L87.3672 31.7031H87.1914ZM111.449 23.2129V24.3203C111.449 26.2539 110.723 27.9355 109.27 29.3652C107.91 30.6895 106.205 31.3516 104.154 31.3516C102.127 31.3516 100.422 30.6895 99.0391 29.3652C97.5859 27.959 96.8594 26.2773 96.8594 24.3203V18.3438C96.8594 16.3984 97.5859 14.7168 99.0391 13.2988C100.398 11.9746 102.104 11.3125 104.154 11.3125C106.158 11.3125 107.863 11.9746 109.27 13.2988C110.723 14.6699 111.449 16.1816 111.449 17.834L100.48 26.6934C100.645 27.4551 100.973 28.0469 101.465 28.4688C102.203 29.1016 103.1 29.418 104.154 29.418C105.209 29.418 106.1 29.1016 106.826 28.4688C107.564 27.8359 107.934 26.6113 107.934 24.7949L111.273 23.2129H111.449ZM100.375 23.9863L107.934 17.8516V17.1484C107.934 15.8125 107.57 14.8281 106.844 14.1953C106.105 13.5625 105.209 13.2461 104.154 13.2461C103.111 13.2461 102.215 13.5625 101.465 14.1953C100.738 14.8047 100.375 15.7891 100.375 17.1484V23.9863ZM131.312 23.2129V24.3203C131.312 26.2539 130.586 27.9355 129.133 29.3652C127.773 30.6895 126.068 31.3516 124.018 31.3516C121.99 31.3516 120.285 30.6895 118.902 29.3652C117.449 27.959 116.723 26.2773 116.723 24.3203V18.3438C116.723 16.3984 117.449 14.7168 118.902 13.2988C120.262 11.9746 121.967 11.3125 124.018 11.3125C126.021 11.3125 127.727 11.9746 129.133 13.2988C130.586 14.6699 131.312 16.1816 131.312 17.834L120.344 26.6934C120.508 27.4551 120.836 28.0469 121.328 28.4688C122.066 29.1016 122.963 29.418 124.018 29.418C125.072 29.418 125.963 29.1016 126.689 28.4688C127.428 27.8359 127.797 26.6113 127.797 24.7949L131.137 23.2129H131.312ZM120.238 23.9863L127.797 17.8516V17.1484C127.797 15.8125 127.434 14.8281 126.707 14.1953C125.969 13.5625 125.072 13.2461 124.018 13.2461C122.975 13.2461 122.078 13.5625 121.328 14.1953C120.602 14.8047 120.238 15.7891 120.238 17.1484V23.9863Z" fill="#CCC6C6"/>
<path d="M8.66992 35.2188H7.66992V36.2188H8.66992V35.2188ZM8.66992 31.3164H9.66992V30.4006L8.75767 30.3203L8.66992 31.3164ZM3.18555 28.8027L2.45839 29.4892L2.45853 29.4894L3.18555 28.8027ZM0.8125 22.9141L0.384414 22.0103L-0.1875 22.2812V22.9141H0.8125ZM4.15234 21.332V20.332H3.92748L3.72426 20.4283L4.15234 21.332ZM4.32812 21.332H5.32812V20.332H4.32812V21.332ZM5.59375 27.6074L6.35036 26.9536L6.34914 26.9521L5.59375 27.6074ZM8.66992 29.3301L8.5101 30.3172L9.66992 30.505V29.3301H8.66992ZM8.66992 17.7461H9.66992V16.8558L8.78558 16.7528L8.66992 17.7461ZM4.15234 15.6895L4.82168 14.9465L4.82131 14.9462L4.15234 15.6895ZM4.57422 5.79297L3.94662 5.01443L3.94647 5.01456L4.57422 5.79297ZM8.66992 4.1582L8.77307 5.15287L9.66992 5.05986V4.1582H8.66992ZM8.66992 1.11719L8.2433 0.212756L7.66992 0.483219V1.11719H8.66992ZM10.5332 0.238281V-0.761719H10.3092L10.1066 -0.66615L10.5332 0.238281ZM10.709 0.238281H11.709V-0.761719H10.709V0.238281ZM10.709 4.1582H9.70898V5.05986L10.6058 5.15287L10.709 4.1582ZM14.8047 5.79297L15.4324 5.01456L15.4323 5.01443L14.8047 5.79297ZM16.9844 10.6621L17.4125 11.5658L17.9844 11.2949V10.6621H16.9844ZM13.6445 12.2441V13.2441H13.8694L14.0726 13.1479L13.6445 12.2441ZM13.4688 12.2441H12.4688V13.2441H13.4688V12.2441ZM12.3262 7.00586L11.6664 7.7573L11.6668 7.75772L12.3262 7.00586ZM10.709 6.16211L10.938 5.18869L9.70898 4.89951V6.16211H10.709ZM10.709 14.6699H9.70898V15.6117L10.6491 15.6681L10.709 14.6699ZM16.1934 16.6387L16.8605 15.8937L16.8594 15.8927L16.1934 16.6387ZM16.1934 28.8027L16.9204 29.4894L16.9207 29.4891L16.1934 28.8027ZM10.709 31.3164L10.6212 30.3203L9.70898 30.4006V31.3164H10.709ZM10.709 34.3398L11.1356 35.2443L11.709 34.9738V34.3398H10.709ZM8.8457 35.2188V36.2188H9.06972L9.27232 36.1232L8.8457 35.2188ZM8.66992 14.5469L8.47108 15.5269L9.66992 15.7701V14.5469H8.66992ZM8.66992 6.14453H9.66992V4.89558L8.45121 5.16874L8.66992 6.14453ZM6.94727 7.11133L6.22313 6.42167L6.22285 6.42196L6.94727 7.11133ZM6.70117 13.457L7.44601 12.7898L7.44447 12.7881L6.70117 13.457ZM10.709 17.8516L10.8221 16.858L9.70898 16.7313V17.8516H10.709ZM10.709 29.3301H9.70898V30.5068L10.8703 30.317L10.709 29.3301ZM14.0137 19.4512L14.7792 18.8077L14.7778 18.8061L14.0137 19.4512ZM9.66992 35.2188V31.3164H7.66992V35.2188H9.66992ZM8.75767 30.3203C6.70885 30.1398 5.11892 29.3934 3.91256 28.1161L2.45853 29.4894C4.04123 31.1652 6.10755 32.0946 8.58218 32.3125L8.75767 30.3203ZM3.9127 28.1163C2.50118 26.6211 1.8125 24.902 1.8125 22.9141H-0.1875C-0.1875 25.4261 0.70585 27.6328 2.45839 29.4892L3.9127 28.1163ZM1.24059 23.8178L4.58043 22.2358L3.72426 20.4283L0.384414 22.0103L1.24059 23.8178ZM4.15234 22.332H4.32812V20.332H4.15234V22.332ZM3.32812 21.332V24.0039H5.32812V21.332H3.32812ZM3.32812 24.0039C3.32812 25.6458 3.81913 27.0878 4.83836 28.2627L6.34914 26.9521C5.68087 26.1818 5.32812 25.2213 5.32812 24.0039H3.32812ZM4.83714 28.2613C5.80997 29.387 7.04609 30.0802 8.5101 30.3172L8.82975 28.3429C7.83282 28.1815 7.01816 27.7263 6.35036 26.9536L4.83714 28.2613ZM9.66992 29.3301V17.7461H7.66992V29.3301H9.66992ZM8.78558 16.7528C7.2843 16.578 5.97105 15.982 4.82168 14.9465L3.48301 16.4324C4.9352 17.7407 6.63367 18.5158 8.55426 18.7394L8.78558 16.7528ZM4.82131 14.9462C3.9143 14.1298 3.39453 12.9041 3.39453 11.1016H1.39453C1.39453 13.3069 2.04664 15.1397 3.48338 16.4327L4.82131 14.9462ZM3.39453 11.1016C3.39453 8.94846 4.04533 7.50416 5.20197 6.57138L3.94647 5.01456C2.19686 6.42553 1.39453 8.52029 1.39453 11.1016H3.39453ZM5.20182 6.57151C6.18814 5.77641 7.36737 5.29865 8.77307 5.15287L8.56677 3.16354C6.80841 3.34589 5.25717 3.95797 3.94662 5.01443L5.20182 6.57151ZM9.66992 4.1582V1.11719H7.66992V4.1582H9.66992ZM9.09654 2.02162L10.9598 1.14271L10.1066 -0.66615L8.2433 0.212756L9.09654 2.02162ZM10.5332 1.23828H10.709V-0.761719H10.5332V1.23828ZM9.70898 0.238281V4.1582H11.709V0.238281H9.70898ZM10.6058 5.15287C12.0115 5.29865 13.1908 5.77641 14.1771 6.57151L15.4323 5.01443C14.1217 3.95797 12.5705 3.34589 10.8121 3.16354L10.6058 5.15287ZM14.1769 6.57138C15.3665 7.53069 15.9844 8.85213 15.9844 10.6621H17.9844C17.9844 8.32365 17.1492 6.399 15.4324 5.01456L14.1769 6.57138ZM16.5563 9.75837L13.2164 11.3404L14.0726 13.1479L17.4125 11.5658L16.5563 9.75837ZM13.6445 11.2441H13.4688V13.2441H13.6445V11.2441ZM14.4688 12.2441V9.99414H12.4688V12.2441H14.4688ZM14.4688 9.99414C14.4688 8.47592 14.0256 7.16608 12.9855 6.254L11.6668 7.75772C12.1502 8.18158 12.4688 8.86392 12.4688 9.99414H14.4688ZM12.986 6.25442C12.3876 5.72899 11.702 5.36845 10.938 5.18869L10.4799 7.13553C10.9113 7.23702 11.3038 7.43898 11.6664 7.7573L12.986 6.25442ZM9.70898 6.16211V14.6699H11.709V6.16211H9.70898ZM10.6491 15.6681C12.8432 15.7998 14.4313 16.406 15.5273 17.3846L16.8594 15.8927C15.3304 14.5276 13.2622 13.8213 10.7689 13.6717L10.6491 15.6681ZM15.5262 17.3836C16.8336 18.5544 17.5488 20.2741 17.5488 22.7031H19.5488C19.5488 19.8587 18.6937 17.5354 16.8605 15.8937L15.5262 17.3836ZM17.5488 22.7031C17.5488 24.8643 16.8518 26.6479 15.4661 28.1164L16.9207 29.4891C18.6755 27.6294 19.5488 25.3466 19.5488 22.7031H17.5488ZM15.4663 28.1161C14.26 29.3934 12.6701 30.1398 10.6212 30.3203L10.7967 32.3125C13.2714 32.0946 15.3377 31.1652 16.9204 29.4894L15.4663 28.1161ZM9.70898 31.3164V34.3398H11.709V31.3164H9.70898ZM10.2824 33.4354L8.41908 34.3143L9.27232 36.1232L11.1356 35.2443L10.2824 33.4354ZM8.8457 34.2188H8.66992V36.2188H8.8457V34.2188ZM9.66992 14.5469V6.14453H7.66992V14.5469H9.66992ZM8.45121 5.16874C7.58354 5.36322 6.83189 5.78248 6.22313 6.42167L7.6714 7.80098C8.00014 7.45581 8.39693 7.23053 8.88863 7.12032L8.45121 5.16874ZM6.22285 6.42196C5.26163 7.43206 4.91016 9.00073 4.91016 10.8379H6.91016C6.91016 9.15943 7.25009 8.24372 7.67168 7.80069L6.22285 6.42196ZM4.91016 10.8379C4.91016 12.1308 5.20214 13.2863 5.95788 14.126L7.44447 12.7881C7.14551 12.4559 6.91016 11.8653 6.91016 10.8379H4.91016ZM5.95634 14.1243C6.61727 14.8621 7.47219 15.3242 8.47108 15.5269L8.86877 13.5668C8.25047 13.4414 7.79289 13.177 7.44601 12.7898L5.95634 14.1243ZM9.70898 17.8516V29.3301H11.709V17.8516H9.70898ZM10.8703 30.317C12.3235 30.0794 13.5559 29.3861 14.5372 28.2666L13.0332 26.9483C12.3504 27.7272 11.532 28.1823 10.5477 28.3432L10.8703 30.317ZM14.5372 28.2666C15.6163 27.0354 16.0332 25.1004 16.0332 22.7383H14.0332C14.0332 24.97 13.618 26.281 13.0332 26.9483L14.5372 28.2666ZM16.0332 22.7383C16.0332 21.1938 15.6518 19.8459 14.7792 18.8077L13.2482 20.0946C13.7349 20.6736 14.0332 21.5171 14.0332 22.7383H16.0332ZM14.7778 18.8061C13.8157 17.6664 12.456 17.044 10.8221 16.858L10.5959 18.8451C11.8448 18.9873 12.6882 19.4312 13.2495 20.0962L14.7778 18.8061ZM26.3359 31.7031H25.3359V32.7031H26.3359V31.7031ZM26.3359 13.5977H27.3359V12.5977H26.3359V13.5977ZM21.8184 13.5977H20.8184V14.5977H21.8184V13.5977ZM21.8184 13.4219L20.9133 12.9965L20.8184 13.1986V13.4219H21.8184ZM22.6445 11.6641V10.6641H22.0096L21.7395 11.2387L22.6445 11.6641ZM26.3359 11.6641V12.6641H27.3359V11.6641H26.3359ZM26.3359 5.33594L25.9079 4.4322L25.3359 4.70311V5.33594H26.3359ZM29.6758 3.75391V2.75391H29.4509L29.2477 2.85017L29.6758 3.75391ZM29.8516 3.75391H30.8516V2.75391H29.8516V3.75391ZM29.8516 11.6641H28.8516V12.6641H29.8516V11.6641ZM34.3691 11.6641H35.3691V10.6641H34.3691V11.6641ZM34.3691 11.8398L35.2742 12.2652L35.3691 12.0631V11.8398H34.3691ZM33.543 13.5977V14.5977H34.1779L34.448 14.023L33.543 13.5977ZM29.8516 13.5977V12.5977H28.8516V13.5977H29.8516ZM29.8516 30.1211L30.2796 31.0248L30.8516 30.7539V30.1211H29.8516ZM26.5117 31.7031V32.7031H26.7366L26.9398 32.6069L26.5117 31.7031ZM27.3359 31.7031V13.5977H25.3359V31.7031H27.3359ZM26.3359 12.5977H21.8184V14.5977H26.3359V12.5977ZM22.8184 13.5977V13.4219H20.8184V13.5977H22.8184ZM22.7234 13.8472L23.5496 12.0894L21.7395 11.2387L20.9133 12.9965L22.7234 13.8472ZM22.6445 12.6641H26.3359V10.6641H22.6445V12.6641ZM27.3359 11.6641V5.33594H25.3359V11.6641H27.3359ZM26.764 6.23968L30.1039 4.65764L29.2477 2.85017L25.9079 4.4322L26.764 6.23968ZM29.6758 4.75391H29.8516V2.75391H29.6758V4.75391ZM28.8516 3.75391V11.6641H30.8516V3.75391H28.8516ZM29.8516 12.6641H34.3691V10.6641H29.8516V12.6641ZM33.3691 11.6641V11.8398H35.3691V11.6641H33.3691ZM33.4641 11.4145L32.6379 13.1723L34.448 14.023L35.2742 12.2652L33.4641 11.4145ZM33.543 12.5977H29.8516V14.5977H33.543V12.5977ZM28.8516 13.5977V30.1211H30.8516V13.5977H28.8516ZM29.4235 29.2174L26.0836 30.7994L26.9398 32.6069L30.2796 31.0248L29.4235 29.2174ZM26.5117 30.7031H26.3359V32.7031H26.5117V30.7031ZM52.2109 21.1738H53.2109V20.168L52.2052 20.1738L52.2109 21.1738ZM48.0449 22.1582L48.6898 22.9225L48.6967 22.9166L48.0449 22.1582ZM48.0625 28.8027L47.3967 29.5489L47.3989 29.5508L48.0625 28.8027ZM52.2109 29.7695V30.7695H53.2109V29.7695H52.2109ZM52.3867 31.7031V32.7031H52.6116L52.8148 32.6069L52.3867 31.7031ZM50.6992 31.7031L50.6334 32.701L50.6663 32.7031H50.6992V31.7031ZM45.5488 30.1211L44.9226 30.9007L44.9231 30.9012L45.5488 30.1211ZM45.584 20.9277L46.204 21.7123L46.2041 21.7122L45.584 20.9277ZM50.6992 19.2402V18.2402H50.6643L50.6295 18.2427L50.6992 19.2402ZM52.2109 19.2402V20.2402H53.2109V19.2402H52.2109ZM50.9453 15.0566L51.6844 14.383L51.6804 14.3787L50.9453 15.0566ZM42.7539 15.0566L43.5054 15.7165L43.5106 15.7105L42.7539 15.0566ZM42.7539 34.8145L43.5106 34.1606L43.5053 34.1547L42.7539 34.8145ZM46.8496 36.625H47.8496V35.625H46.8496V36.625ZM46.8496 38.5586V39.5586H47.8496V38.5586H46.8496ZM40.3457 36.0098L39.6309 36.7091L39.6312 36.7094L40.3457 36.0098ZM40.3457 13.8613L39.6312 13.1617L39.6309 13.162L40.3457 13.8613ZM53.3535 13.8613L52.6391 14.561L52.6412 14.5632L53.3535 13.8613ZM55.7266 30.1211L56.1546 31.0248L56.7266 30.7539V30.1211H55.7266ZM52.2052 20.1738C50.1495 20.1857 48.435 20.5044 47.3932 21.3998L48.6967 22.9166C49.1548 22.5229 50.2177 22.1854 52.2167 22.1738L52.2052 20.1738ZM47.4001 21.3939C46.3216 22.3038 45.9199 23.7552 45.9199 25.4277H47.9199C47.9199 24.0065 48.2682 23.2782 48.6898 22.9225L47.4001 21.3939ZM45.9199 25.4277C45.9199 27.1303 46.3302 28.5972 47.3967 29.5489L48.7283 28.0566C48.2714 27.6489 47.9199 26.8658 47.9199 25.4277H45.9199ZM47.3989 29.5508C47.931 30.0228 48.6337 30.3191 49.4176 30.5017C50.2079 30.6859 51.1451 30.7695 52.2109 30.7695V28.7695C51.2377 28.7695 50.464 28.692 49.8715 28.5539C49.2725 28.4143 48.9206 28.2272 48.7261 28.0547L47.3989 29.5508ZM53.2109 29.7695V21.1738H51.2109V29.7695H53.2109ZM52.3867 30.7031H50.6992V32.7031H52.3867V30.7031ZM50.7651 30.7053C48.5476 30.559 47.0694 30.0588 46.1745 29.341L44.9231 30.9012C46.2783 31.9881 48.2337 32.5426 50.6334 32.701L50.7651 30.7053ZM46.1751 29.3415C44.9736 28.3763 44.4043 27.1945 44.4043 25.7266H42.4043C42.4043 27.8211 43.2647 29.569 44.9226 30.9007L46.1751 29.3415ZM44.4043 25.7266C44.4043 23.9442 45.0188 22.649 46.204 21.7123L44.9639 20.1432C43.2429 21.5033 42.4043 23.4073 42.4043 25.7266H44.4043ZM46.2041 21.7122C47.2258 20.9046 48.7137 20.3814 50.7689 20.2378L50.6295 18.2427C48.3254 18.4037 46.4031 19.0056 44.9639 20.1432L46.2041 21.7122ZM50.6992 20.2402H52.2109V18.2402H50.6992V20.2402ZM53.2109 19.2402C53.2109 17.2466 52.7618 15.5652 51.6844 14.383L50.2062 15.7302C50.8163 16.3997 51.2109 17.5073 51.2109 19.2402H53.2109ZM51.6804 14.3787C50.3811 12.97 48.7509 12.2461 46.8496 12.2461V14.2461C48.1827 14.2461 49.283 14.7293 50.2102 15.7346L51.6804 14.3787ZM46.8496 12.2461C44.8907 12.2461 43.2423 12.9619 41.9972 14.4028L43.5106 15.7105C44.3514 14.7373 45.4335 14.2461 46.8496 14.2461V12.2461ZM42.0025 14.3968C40.963 15.5807 40.4883 17.1061 40.4883 18.8711H42.4883C42.4883 17.472 42.8573 16.4545 43.5053 15.7164L42.0025 14.3968ZM40.4883 18.8711V31H42.4883V18.8711H40.4883ZM40.4883 31C40.4883 32.765 40.963 34.2904 42.0025 35.4743L43.5053 34.1547C42.8573 33.4166 42.4883 32.3991 42.4883 31H40.4883ZM41.9972 35.4683C43.2423 36.9092 44.8907 37.625 46.8496 37.625V35.625C45.4335 35.625 44.3514 35.1338 43.5106 34.1606L41.9972 35.4683ZM45.8496 36.625V38.5586H47.8496V36.625H45.8496ZM46.8496 37.5586C44.4102 37.5586 42.5121 36.7927 41.0602 35.3101L39.6312 36.7094C41.5074 38.6252 43.9452 39.5586 46.8496 39.5586V37.5586ZM41.0605 35.3105C39.6846 33.9039 38.9727 32.0864 38.9727 29.7695H36.9727C36.9727 32.5386 37.8428 34.8812 39.6309 36.7091L41.0605 35.3105ZM38.9727 29.7695V20.1016H36.9727V29.7695H38.9727ZM38.9727 20.1016C38.9727 17.7847 39.6846 15.9672 41.0605 14.5606L39.6309 13.162C37.8428 14.9899 36.9727 17.3325 36.9727 20.1016H38.9727ZM41.0602 14.561C42.5121 13.0784 44.4102 12.3125 46.8496 12.3125V10.3125C43.9452 10.3125 41.5074 11.2458 39.6312 13.1617L41.0602 14.561ZM46.8496 12.3125C49.289 12.3125 51.1871 13.0784 52.6391 14.561L54.068 13.1617C52.1918 11.2458 49.754 10.3125 46.8496 10.3125V12.3125ZM52.6412 14.5632C54.0138 15.9561 54.7266 17.7715 54.7266 20.1016H56.7266C56.7266 17.3223 55.8573 14.9775 54.0658 13.1594L52.6412 14.5632ZM54.7266 20.1016V30.1211H56.7266V20.1016H54.7266ZM55.2985 29.2174L51.9586 30.7994L52.8148 32.6069L56.1546 31.0248L55.2985 29.2174ZM62.4062 31.7031H61.4062V32.7031H62.4062V31.7031ZM64.7793 6.6543L64.0648 5.95461L64.0619 5.95759L64.7793 6.6543ZM77.7871 6.6543L77.08 7.36141L77.0826 7.36403L77.7871 6.6543ZM80.1602 30.1211L80.5882 31.0248L81.1602 30.7539V30.1211H80.1602ZM76.8203 31.7031V32.7031H77.0452L77.2484 32.6069L76.8203 31.7031ZM76.6445 31.7031H75.6445V32.7031H76.6445V31.7031ZM75.3789 7.84961L74.6222 8.50342L74.6235 8.50489L75.3789 7.84961ZM67.1875 7.84961L67.9429 8.50489L67.9442 8.50342L67.1875 7.84961ZM65.9219 30.1211L66.35 31.0248L66.9219 30.7539V30.1211H65.9219ZM62.582 31.7031V32.7031H62.8069L63.0101 32.6069L62.582 31.7031ZM63.4062 31.7031V12.8945H61.4062V31.7031H63.4062ZM63.4062 12.8945C63.4062 10.5909 64.1173 8.77119 65.4966 7.35101L64.0619 5.95759C62.2772 7.79522 61.4062 10.1356 61.4062 12.8945H63.4062ZM65.4938 7.35397C66.9457 5.87134 68.8438 5.10547 71.2832 5.10547V3.10547C68.3788 3.10547 65.941 4.03882 64.0648 5.95462L65.4938 7.35397ZM71.2832 5.10547C73.6831 5.10547 75.5875 5.86886 77.08 7.3614L78.4942 5.94719C76.5883 4.04129 74.1568 3.10547 71.2832 3.10547V5.10547ZM77.0826 7.36403C78.4448 8.71608 79.1602 10.5245 79.1602 12.8945H81.1602C81.1602 10.0849 80.2935 7.73314 78.4916 5.94457L77.0826 7.36403ZM79.1602 12.8945V30.1211H81.1602V12.8945H79.1602ZM79.7321 29.2174L76.3922 30.7994L77.2484 32.6069L80.5882 31.0248L79.7321 29.2174ZM76.8203 30.7031H76.6445V32.7031H76.8203V30.7031ZM77.6445 31.7031V11.6641H75.6445V31.7031H77.6445ZM77.6445 11.6641C77.6445 9.90811 77.1685 8.38656 76.1343 7.19433L74.6235 8.50489C75.2768 9.25798 75.6445 10.2794 75.6445 11.6641H77.6445ZM76.1356 7.1958C74.8905 5.75486 73.2421 5.03906 71.2832 5.03906V7.03906C72.6993 7.03906 73.7814 7.53029 74.6222 8.50342L76.1356 7.1958ZM71.2832 5.03906C69.3243 5.03906 67.6759 5.75486 66.4308 7.1958L67.9442 8.50342C68.785 7.53029 69.8671 7.03906 71.2832 7.03906V5.03906ZM66.4321 7.19433C65.3979 8.38656 64.9219 9.90811 64.9219 11.6641H66.9219C66.9219 10.2794 67.2896 9.25798 67.9429 8.50489L66.4321 7.19433ZM64.9219 11.6641V30.1211H66.9219V11.6641H64.9219ZM65.4938 29.2174L62.1539 30.7994L63.0101 32.6069L66.35 31.0248L65.4938 29.2174ZM62.582 30.7031H62.4062V32.7031H62.582V30.7031ZM87.1914 31.7031H86.1914V32.7031H87.1914V31.7031ZM87.1914 5.33594L86.7633 4.4322L86.1914 4.70311V5.33594H87.1914ZM90.5312 3.75391V2.75391H90.3064L90.1032 2.85017L90.5312 3.75391ZM90.707 3.75391H91.707V2.75391H90.707V3.75391ZM90.707 30.1211L91.1351 31.0248L91.707 30.7539V30.1211H90.707ZM87.3672 31.7031V32.7031H87.5921L87.7953 32.6069L87.3672 31.7031ZM88.1914 31.7031V5.33594H86.1914V31.7031H88.1914ZM87.6195 6.23968L90.9593 4.65764L90.1032 2.85017L86.7633 4.4322L87.6195 6.23968ZM90.5312 4.75391H90.707V2.75391H90.5312V4.75391ZM89.707 3.75391V30.1211H91.707V3.75391H89.707ZM90.2789 29.2174L86.9391 30.7994L87.7953 32.6069L91.1351 31.0248L90.2789 29.2174ZM87.3672 30.7031H87.1914V32.7031H87.3672V30.7031ZM111.449 23.2129H112.449V22.2129H111.449V23.2129ZM109.27 29.3652L109.967 30.0816L109.971 30.0781L109.27 29.3652ZM99.0391 29.3652L98.3436 30.0838L98.3474 30.0875L99.0391 29.3652ZM99.0391 13.2988L98.3413 12.5825L98.3407 12.5831L99.0391 13.2988ZM109.27 13.2988L109.956 12.5715L109.955 12.5708L109.27 13.2988ZM111.449 17.834L112.078 18.6119L112.449 18.3117V17.834H111.449ZM100.48 26.6934L99.8521 25.9154L99.3733 26.3022L99.5029 26.9039L100.48 26.6934ZM106.826 28.4688L106.175 27.7095L106.169 27.7147L106.826 28.4688ZM107.934 24.7949L107.506 23.8912L106.934 24.1621V24.7949H107.934ZM111.273 23.2129V22.2129H111.049L110.845 22.3092L111.273 23.2129ZM100.375 23.9863H99.375V26.0859L101.005 24.7628L100.375 23.9863ZM107.934 17.8516L108.564 18.628L108.934 18.3279V17.8516H107.934ZM106.844 14.1953L107.501 13.4412L107.495 13.4361L106.844 14.1953ZM101.465 14.1953L102.107 14.9615L102.11 14.9596L101.465 14.1953ZM110.449 23.2129V24.3203H112.449V23.2129H110.449ZM110.449 24.3203C110.449 25.9701 109.842 27.3993 108.568 28.6524L109.971 30.0781C111.603 28.4718 112.449 26.5377 112.449 24.3203H110.449ZM108.572 28.6489C107.415 29.7757 105.968 30.3516 104.154 30.3516V32.3516C106.443 32.3516 108.405 31.6032 109.967 30.0815L108.572 28.6489ZM104.154 30.3516C102.368 30.3516 100.916 29.7777 99.7307 28.643L98.3474 30.0875C99.9281 31.6012 101.886 32.3516 104.154 32.3516V30.3516ZM99.7345 28.6466C98.4688 27.4217 97.8594 25.9965 97.8594 24.3203H95.8594C95.8594 26.5582 96.7031 28.4962 98.3436 30.0838L99.7345 28.6466ZM97.8594 24.3203V18.3438H95.8594V24.3203H97.8594ZM97.8594 18.3438C97.8594 16.6808 98.4678 15.2535 99.7375 14.0145L98.3407 12.5831C96.7041 14.1801 95.8594 16.1161 95.8594 18.3438H97.8594ZM99.7368 14.0151C100.894 12.8883 102.341 12.3125 104.154 12.3125V10.3125C101.866 10.3125 99.9033 11.0609 98.3413 12.5825L99.7368 14.0151ZM104.154 12.3125C105.914 12.3125 107.371 12.8844 108.584 14.0268L109.955 12.5708C108.356 11.0648 106.402 10.3125 104.154 10.3125V12.3125ZM108.583 14.0262C109.881 15.2509 110.449 16.5134 110.449 17.834H112.449C112.449 15.8499 111.564 14.0889 109.956 12.5715L108.583 14.0262ZM110.821 17.056L99.8521 25.9154L101.109 27.4713L112.078 18.6119L110.821 17.056ZM99.5029 26.9039C99.7034 27.8349 100.124 28.6369 100.814 29.228L102.116 27.7095C101.821 27.4569 101.586 27.0753 101.458 26.4828L99.5029 26.9039ZM100.814 29.228C101.749 30.0298 102.883 30.418 104.154 30.418V28.418C103.317 28.418 102.657 28.1733 102.116 27.7095L100.814 29.228ZM104.154 30.418C105.426 30.418 106.557 30.0297 107.483 29.2228L106.169 27.7147C105.643 28.1735 104.992 28.418 104.154 28.418V30.418ZM107.477 29.228C108.567 28.2934 108.934 26.6704 108.934 24.7949H106.934C106.934 26.5522 106.562 27.3785 106.175 27.7095L107.477 29.228ZM108.362 25.6987L111.702 24.1166L110.845 22.3092L107.506 23.8912L108.362 25.6987ZM111.273 24.2129H111.449V22.2129H111.273V24.2129ZM101.005 24.7628L108.564 18.628L107.303 17.0751L99.7448 23.2099L101.005 24.7628ZM108.934 17.8516V17.1484H106.934V17.8516H108.934ZM108.934 17.1484C108.934 15.6398 108.52 14.329 107.501 13.4412L106.187 14.9494C106.621 15.3273 106.934 15.9852 106.934 17.1484H108.934ZM107.495 13.4361C106.559 12.6343 105.426 12.2461 104.154 12.2461V14.2461C104.992 14.2461 105.652 14.4907 106.193 14.9546L107.495 13.4361ZM104.154 12.2461C102.891 12.2461 101.762 12.636 100.82 13.431L102.11 14.9596C102.667 14.489 103.331 14.2461 104.154 14.2461V12.2461ZM100.822 13.4291C99.7841 14.2998 99.375 15.6261 99.375 17.1484H101.375C101.375 15.9521 101.692 15.3095 102.107 14.9615L100.822 13.4291ZM99.375 17.1484V23.9863H101.375V17.1484H99.375ZM131.312 23.2129H132.312V22.2129H131.312V23.2129ZM129.133 29.3652L129.831 30.0816L129.834 30.0781L129.133 29.3652ZM118.902 29.3652L118.207 30.0838L118.211 30.0875L118.902 29.3652ZM118.902 13.2988L118.205 12.5825L118.204 12.5831L118.902 13.2988ZM129.133 13.2988L129.819 12.5715L129.818 12.5708L129.133 13.2988ZM131.312 17.834L131.941 18.6119L132.312 18.3117V17.834H131.312ZM120.344 26.6934L119.715 25.9154L119.237 26.3022L119.366 26.9039L120.344 26.6934ZM126.689 28.4688L126.039 27.7095L126.033 27.7147L126.689 28.4688ZM127.797 24.7949L127.369 23.8912L126.797 24.1621V24.7949H127.797ZM131.137 23.2129V22.2129H130.912L130.709 22.3092L131.137 23.2129ZM120.238 23.9863H119.238V26.0859L120.868 24.7628L120.238 23.9863ZM127.797 17.8516L128.427 18.628L128.797 18.3279V17.8516H127.797ZM126.707 14.1953L127.364 13.4412L127.358 13.4361L126.707 14.1953ZM121.328 14.1953L121.971 14.9615L121.973 14.9596L121.328 14.1953ZM130.312 23.2129V24.3203H132.312V23.2129H130.312ZM130.312 24.3203C130.312 25.9701 129.705 27.3993 128.431 28.6524L129.834 30.0781C131.467 28.4718 132.312 26.5377 132.312 24.3203H130.312ZM128.435 28.6489C127.278 29.7757 125.831 30.3516 124.018 30.3516V32.3516C126.306 32.3516 128.269 31.6032 129.831 30.0815L128.435 28.6489ZM124.018 30.3516C122.231 30.3516 120.779 29.7777 119.594 28.643L118.211 30.0875C119.791 31.6012 121.749 32.3516 124.018 32.3516V30.3516ZM119.598 28.6466C118.332 27.4217 117.723 25.9965 117.723 24.3203H115.723C115.723 26.5582 116.566 28.4962 118.207 30.0838L119.598 28.6466ZM117.723 24.3203V18.3438H115.723V24.3203H117.723ZM117.723 18.3438C117.723 16.6808 118.331 15.2535 119.601 14.0145L118.204 12.5831C116.567 14.1801 115.723 16.1161 115.723 18.3438H117.723ZM119.6 14.0151C120.757 12.8883 122.204 12.3125 124.018 12.3125V10.3125C121.729 10.3125 119.767 11.0609 118.205 12.5825L119.6 14.0151ZM124.018 12.3125C125.777 12.3125 127.234 12.8844 128.447 14.0268L129.818 12.5708C128.219 11.0648 126.266 10.3125 124.018 10.3125V12.3125ZM128.447 14.0262C129.745 15.2509 130.312 16.5134 130.312 17.834H132.312C132.312 15.8499 131.427 14.0889 129.819 12.5715L128.447 14.0262ZM130.684 17.056L119.715 25.9154L120.972 27.4713L131.941 18.6119L130.684 17.056ZM119.366 26.9039C119.567 27.8349 119.988 28.6369 120.677 29.228L121.979 27.7095C121.684 27.4569 121.449 27.0753 121.321 26.4828L119.366 26.9039ZM120.677 29.228C121.613 30.0298 122.746 30.418 124.018 30.418V28.418C123.18 28.418 122.52 28.1733 121.979 27.7095L120.677 29.228ZM124.018 30.418C125.289 30.418 126.42 30.0297 127.346 29.2228L126.033 27.7147C125.506 28.1735 124.855 28.418 124.018 28.418V30.418ZM127.34 29.228C128.431 28.2934 128.797 26.6704 128.797 24.7949H126.797C126.797 26.5522 126.425 27.3785 126.039 27.7095L127.34 29.228ZM128.225 25.6987L131.565 24.1166L130.709 22.3092L127.369 23.8912L128.225 25.6987ZM131.137 24.2129H131.312V22.2129H131.137V24.2129ZM120.868 24.7628L128.427 18.628L127.167 17.0751L119.608 23.2099L120.868 24.7628ZM128.797 17.8516V17.1484H126.797V17.8516H128.797ZM128.797 17.1484C128.797 15.6398 128.383 14.329 127.364 13.4412L126.05 14.9494C126.484 15.3273 126.797 15.9852 126.797 17.1484H128.797ZM127.358 13.4361C126.422 12.6343 125.289 12.2461 124.018 12.2461V14.2461C124.855 14.2461 125.515 14.4907 126.056 14.9546L127.358 13.4361ZM124.018 12.2461C122.755 12.2461 121.626 12.636 120.683 13.431L121.973 14.9596C122.531 14.489 123.195 14.2461 124.018 14.2461V12.2461ZM120.686 13.4291C119.647 14.2998 119.238 15.6261 119.238 17.1484H121.238C121.238 15.9521 121.556 15.3095 121.971 14.9615L120.686 13.4291ZM119.238 17.1484V23.9863H121.238V17.1484H119.238Z" fill="#CCC6C6"/>
</svg>
